<?xml version="1.0" standalone="no"?>
<!DOCTYPE svg PUBLIC "-//W3C//DTD SVG 20010904//EN"
 "http://www.w3.org/TR/2001/REC-SVG-20010904/DTD/svg10.dtd">
<svg version="1.0" xmlns="http://www.w3.org/2000/svg"
 width="657.000000pt" height="585.000000pt" viewBox="0 0 657.000000 585.000000"
 preserveAspectRatio="xMidYMid meet">
<metadata>
Created by potrace 1.14, written by Peter Selinger 2001-2017
</metadata>
<g transform="translate(0.000000,585.000000) scale(0.100000,-0.100000)"
fill="#000000" stroke="none">
<path d="M1005 5843 c-11 -2 -54 -10 -96 -18 -223 -43 -411 -144 -574 -309
-136 -137 -224 -282 -279 -455 -58 -185 -57 -141 -53 -1751 l3 -1475 22 -85
c61 -230 150 -389 306 -546 162 -163 357 -267 583 -313 96 -20 133 -21 782
-21 375 0 681 3 681 8 0 4 -201 208 -448 455 l-447 447 -190 0 c-105 0 -206 5
-226 10 -52 15 -113 72 -138 129 l-21 50 2 1403 3 1403 22 40 c24 46 54 75
103 101 34 18 107 19 2245 19 2106 0 2212 -1 2243 -18 43 -24 91 -74 111 -117
14 -32 16 -167 19 -1395 2 -864 -1 -1383 -7 -1424 -12 -78 -48 -132 -110 -169
l-46 -27 -1363 -3 c-885 -1 -1362 -6 -1360 -12 4 -12 1760 -1770 1768 -1770 3
0 201 196 440 435 l435 435 53 0 c145 0 311 43 467 120 301 149 502 396 597
735 l23 80 3 1510 c2 1111 0 1530 -8 1585 -74 478 -461 861 -945 936 -75 11
-461 13 -2335 13 -1235 -1 -2254 -3 -2265 -6z"/>
</g>
</svg>
